<?xml version="1.0" encoding="utf-8"?>
<!-- Generator: Adobe Illustrator 19.1.0, SVG Export Plug-In . SVG Version: 6.00 Build 0)  -->
<svg version="1.1" id="Layer_1" xmlns="http://www.w3.org/2000/svg" xmlns:xlink="http://www.w3.org/1999/xlink" x="0px" y="0px"
	 viewBox="0 0 60.6 19.1" style="enable-background:new 0 0 60.6 19.1;" xml:space="preserve">
<style type="text/css">
	.st0{font-family:'FuturaPT-Heavy';}
	.st1{font-size:4.7317px;}
	.st2{fill:#8F1E1D;}
	.st3{fill:#FFFFFF;}
</style>
<text transform="matrix(1 0 0 1 0 14.4105)" class="st0 st1">ELECTION</text>
<text transform="matrix(1 0 0 1 36.86 14.4105)" class="st0 st1">ACADEMY</text>
<g>
	<polygon class="st2" points="39.9,7.8 39.1,7.8 27.2,14.6 30.1,5.3 31.5,10.1 37.9,7.8 32.7,7.8 29.9,0 27.7,7.8 20.2,7.8 26.1,12 
		23.8,19.1 28.9,15.4 29.9,14.7 29.8,14.6 29.9,14.7 32,13.1 34,17.5 36.2,19.1 33.8,11.8 	"/>
	<polygon class="st3" points="30.1,5.3 27.2,14.6 39.1,7.8 37.9,7.8 31.5,10.1 	"/>
	<polygon class="st3" points="29.9,14.7 29.9,14.7 29.9,14.7 34,17.5 32,13.1 	"/>
	<polygon class="st2" points="28.9,15.4 29.9,14.7 29.9,14.7 	"/>
</g>
</svg>
