<?xml version="1.0" encoding="utf-8"?>
<!-- Generator: Adobe Illustrator 19.1.0, SVG Export Plug-In . SVG Version: 6.00 Build 0)  -->
<svg version="1.1" id="Layer_1" xmlns="http://www.w3.org/2000/svg" xmlns:xlink="http://www.w3.org/1999/xlink" x="0px" y="0px"
	 viewBox="0 0 300 60" style="enable-background:new 0 0 300 60;" xml:space="preserve">
<style type="text/css">
	.st0{fill:#FFFFFF;}
</style>
<g>
	<g>
		<path class="st0" d="M66.7,43.9v-2.2c0.5-0.1,1-0.2,1.4-0.2l-5.5-6.6v6.5c0.6,0.1,1.2,0.2,1.8,0.3v2.2h-7.7v-2.2
			c0.7-0.2,1.6-0.3,2.4-0.4V28c-0.8-0.1-1.7-0.2-2.4-0.4v-2.2h7.7v2.2c-0.6,0.2-1.2,0.3-1.8,0.3v6.1l5.5-6.2c-0.4,0-1-0.1-1.4-0.2
			v-2.2h7.5v2.2c-0.5,0.1-1.2,0.2-1.7,0.3l-5.9,6.4l6.2,7.1c0.5,0.1,1.2,0.2,1.7,0.3v2.2H66.7z"/>
		<path class="st0" d="M86.2,43.9v-8.7c0-1.4-0.4-2.2-1.7-2.2c-1.8,0-3.2,2-3.2,4.4v4c0.7,0.1,1.4,0.2,2,0.3v2.2h-7.9v-2.2
			c0.7-0.2,1.6-0.3,2.4-0.4v-8.4c-0.7-0.1-1.6-0.2-2.4-0.3v-2.2c1.8-0.2,3.9-0.3,5.7-0.2c0,0.6-0.1,1.7-0.2,2.5h0
			c0.8-1.6,2.4-2.7,4.6-2.7c3.1,0,4.1,1.9,4.1,4.3v7c0.8,0.1,1.6,0.2,2.2,0.4v2.2H86.2z"/>
		<path class="st0" d="M92.6,43.9v-2.2c0.7-0.2,1.6-0.3,2.4-0.4v-8.4c-0.7-0.1-1.6-0.2-2.4-0.3v-2.2c1.8-0.2,3.9-0.3,5.9-0.2v11.1
			c0.8,0.1,1.6,0.2,2.2,0.4v2.2H92.6z M96.7,28.2c-1.2,0-2.2-0.9-2.2-2.1c0-1.2,1-2.1,2.2-2.1c1.2,0,2.2,0.9,2.2,2.1
			C98.9,27.3,98,28.2,96.7,28.2z"/>
		<path class="st0" d="M107.6,50.7c-3.6,0-5.8-1.4-5.8-4.1c0-1.4,1-2.7,2.1-3.3c-0.8-0.4-1.3-1.2-1.3-2.1c0-1.1,0.7-2,1.6-2.4
			c-1.3-0.7-2-1.9-2-3.7c0-2.7,2-5.1,6-5.1c0.9,0,1.5,0.1,2.2,0.3h4.6V33h-1.9c0.4,0.4,0.7,1,0.7,1.7c0,2.9-1.9,4.9-5.8,4.9
			c-0.4,0-0.7,0-1.1-0.1c-0.4,0.2-0.7,0.5-0.7,0.9c0,0.6,0.5,0.8,2.1,0.8l2.1,0.1c2.9,0.1,4.6,1.4,4.6,4
			C115,48.3,112.1,50.7,107.6,50.7z M109.4,44l-2.4-0.1h-0.6c-0.8,0.6-1.3,1.3-1.3,2.1c0,1.3,1.1,2,2.9,2c2.3,0,3.5-1,3.5-2.3
			C111.6,44.8,110.9,44.1,109.4,44z M107.9,32.5c-1.6,0-2.5,1-2.5,2.4c0,1.5,0.9,2.4,2.5,2.4c1.5,0,2.5-0.9,2.5-2.3
			C110.4,33.5,109.6,32.5,107.9,32.5z"/>
		<path class="st0" d="M126.3,43.9v-8.7c0-1.4-0.4-2.2-1.7-2.2c-1.8,0-3.2,2-3.2,4.4v4c0.7,0.1,1.4,0.2,2,0.3v2.2h-7.7v-2.2
			c0.7-0.2,1.5-0.3,2.2-0.4V26.6c-0.7-0.1-1.6-0.2-2.3-0.3v-2.2c1.7-0.2,3.8-0.3,5.8-0.2v5.9c0,0.8-0.1,1.9-0.2,2.8h0
			c0.8-1.5,2.4-2.5,4.5-2.5c3.1,0,4.1,1.9,4.1,4.3v7c0.7,0.1,1.5,0.2,2.2,0.4v2.2H126.3z"/>
		<path class="st0" d="M138.6,44.1c-3,0-3.9-1.1-3.9-4.3V33h-2.4v-2.7h2.4v-4.2l3.5-0.9v5.1h3.3V33h-3.3v6c0,1.8,0.4,2.2,1.6,2.2
			c0.6,0,1.1-0.1,1.6-0.2l0.2,2.8C140.7,44,139.5,44.1,138.6,44.1z"/>
		<path class="st0" d="M158.4,30.1c-0.1-0.6-0.2-1.2-0.3-1.9h-3.7v5.1h3.1c0.1-0.5,0.2-1,0.3-1.5h2.3v5.7h-2.3
			c-0.1-0.5-0.2-1-0.3-1.5h-3.1v5.3c0.8,0.1,1.7,0.2,2.4,0.4v2.2h-8.3v-2.2c0.7-0.2,1.6-0.3,2.4-0.4V28c-0.8-0.1-1.7-0.2-2.4-0.4
			v-2.2H161v4.7H158.4z"/>
		<path class="st0" d="M168.9,44.1c-3.9,0-6.4-2-6.4-6.8c0-4.3,2.8-7.4,7-7.4c3.9,0,6.4,2.1,6.4,6.8C175.8,41.1,173,44.1,168.9,44.1
			z M169.2,32.9c-1.6,0-3.1,1.2-3.1,4.1c0,2.7,1,4.1,3,4.1c1.7,0,3-1.4,3-4.1C172.2,34.4,171.2,32.9,169.2,32.9z"/>
		<path class="st0" d="M187.6,43.9c0-0.7,0.1-1.7,0.2-2.5h-0.1c-0.8,1.6-2.4,2.7-4.6,2.7c-3.1,0-4.1-1.9-4.1-4.3v-6.9
			c-0.7-0.1-1.5-0.2-2.2-0.3v-2.2c1.6-0.2,3.7-0.3,5.7-0.2V39c0,1.4,0.4,2.2,1.7,2.2c1.8,0,3.2-2,3.2-4.4v-3.9
			c-0.6-0.1-1.3-0.2-2-0.2v-2.2c1.6-0.2,3.6-0.2,5.5-0.2v11c0.7,0.1,1.5,0.2,2.2,0.3v2.2C191.5,43.9,189.4,44,187.6,43.9z"/>
		<path class="st0" d="M204.6,43.9v-8.7c0-1.4-0.4-2.2-1.7-2.2c-1.8,0-3.2,2-3.2,4.4v4c0.7,0.1,1.4,0.2,2,0.3v2.2h-7.9v-2.2
			c0.7-0.2,1.6-0.3,2.4-0.4v-8.4c-0.7-0.1-1.6-0.2-2.4-0.3v-2.2c1.8-0.2,3.9-0.3,5.7-0.2c0,0.6-0.1,1.7-0.2,2.5h0
			c0.8-1.6,2.4-2.7,4.6-2.7c3.1,0,4.1,1.9,4.1,4.3v7c0.8,0.1,1.6,0.2,2.2,0.4v2.2H204.6z"/>
		<path class="st0" d="M220.4,43.9c0-0.7,0.1-1.6,0.2-2.3h-0.1c-0.7,1.5-2.2,2.6-4.3,2.6c-3.3,0-5-2.5-5-6.4c0-4.6,2.7-7.8,7.2-7.8
			c0.6,0,1.1,0,1.7,0.1v-3.6c-0.7-0.1-1.6-0.2-2.4-0.3v-2.2c1.7-0.2,3.9-0.3,5.9-0.2v17.3c0.7,0.1,1.6,0.2,2.2,0.3v2.2
			C224.3,43.9,222.2,44,220.4,43.9z M220.2,33c-0.6-0.1-1.2-0.2-1.8-0.2c-2,0-3.4,1.3-3.4,4.6c0,2.5,0.7,3.9,2.3,3.9
			c1.8,0,2.9-2.1,2.9-4.5V33z"/>
		<path class="st0" d="M235.1,43.9c0-0.8,0-1.6,0.1-2.3l0,0c-0.7,1.5-2.3,2.6-4.4,2.6c-2.4,0-3.9-1.5-3.9-3.7c0-3.3,3.2-4.8,7.9-4.8
			v-0.8c0-1.5-0.6-2.3-2.4-2.3c-0.7,0-1.4,0.1-2,0.3c-0.1,0.5-0.1,1.2-0.3,1.8h-2.2v-4c1.4-0.4,3.1-0.7,4.7-0.7
			c4.5,0,5.7,1.8,5.7,4.7v6.5c0.7,0.1,1.5,0.2,2.2,0.3v2.2C238.9,43.9,236.8,44,235.1,43.9z M234.8,37.9c-3.1,0-4.5,0.7-4.5,2.1
			c0,0.9,0.6,1.6,1.6,1.6c1.7,0,2.9-1.6,2.9-3.3V37.9z"/>
		<path class="st0" d="M247,44.1c-3,0-3.9-1.1-3.9-4.3V33h-2.4v-2.7h2.4v-4.2l3.5-0.9v5.1h3.3V33h-3.3v6c0,1.8,0.4,2.2,1.6,2.2
			c0.6,0,1.1-0.1,1.6-0.2l0.2,2.8C249.1,44,248,44.1,247,44.1z"/>
		<path class="st0" d="M251.3,43.9v-2.2c0.7-0.2,1.6-0.3,2.4-0.4v-8.4c-0.7-0.1-1.6-0.2-2.4-0.3v-2.2c1.8-0.2,3.9-0.3,5.9-0.2v11.1
			c0.8,0.1,1.6,0.2,2.2,0.4v2.2H251.3z M255.4,28.2c-1.2,0-2.2-0.9-2.2-2.1c0-1.2,1-2.1,2.2-2.1c1.2,0,2.2,0.9,2.2,2.1
			C257.6,27.3,256.6,28.2,255.4,28.2z"/>
		<path class="st0" d="M266.7,44.1c-3.9,0-6.4-2-6.4-6.8c0-4.3,2.8-7.4,7-7.4c3.9,0,6.4,2.1,6.4,6.8
			C273.7,41.1,270.8,44.1,266.7,44.1z M267.1,32.9c-1.6,0-3.1,1.2-3.1,4.1c0,2.7,1,4.1,3,4.1c1.7,0,3-1.4,3-4.1
			C270.1,34.4,269.1,32.9,267.1,32.9z"/>
		<path class="st0" d="M285.8,43.9v-8.7c0-1.4-0.4-2.2-1.7-2.2c-1.8,0-3.2,2-3.2,4.4v4c0.7,0.1,1.4,0.2,2,0.3v2.2H275v-2.2
			c0.7-0.2,1.6-0.3,2.4-0.4v-8.4c-0.7-0.1-1.6-0.2-2.4-0.3v-2.2c1.8-0.2,3.9-0.3,5.7-0.2c0,0.6-0.1,1.7-0.2,2.5h0
			c0.8-1.6,2.4-2.7,4.6-2.7c3.1,0,4.1,1.9,4.1,4.3v7c0.8,0.1,1.6,0.2,2.2,0.4v2.2H285.8z"/>
	</g>
</g>
<g>
	<polygon class="st0" points="12.3,14 21.7,14 12.3,28.2 21.7,43.8 12.3,43.8 	"/>
	<polygon class="st0" points="29.6,14 46.4,14 46.4,20.1 29.6,20.1 29.6,25.3 46.4,25.3 46.4,31.4 29.6,31.4 29.6,43.8 19.6,28.2 	
		"/>
</g>
</svg>
