<?xml version="1.0" encoding="UTF-8" standalone="no"?>
<!-- Created with Inkscape (http://www.inkscape.org/) -->

<svg
   xmlns:dc="http://purl.org/dc/elements/1.1/"
   xmlns:cc="http://creativecommons.org/ns#"
   xmlns:rdf="http://www.w3.org/1999/02/22-rdf-syntax-ns#"
   xmlns:svg="http://www.w3.org/2000/svg"
   xmlns="http://www.w3.org/2000/svg"
   xmlns:sodipodi="http://sodipodi.sourceforge.net/DTD/sodipodi-0.dtd"
   xmlns:inkscape="http://www.inkscape.org/namespaces/inkscape"
   width="580"
   height="180"
   id="svg2434"
   sodipodi:version="0.32"
   inkscape:version="0.48.2 r9819"
   version="1.0"
   sodipodi:docname="logo_horizontal_white.svg"
   inkscape:output_extension="org.inkscape.output.svg.inkscape"
   inkscape:export-filename="/Users/jue/Dropbox (Development Seed)/devseed-graphics/devseed/logo/logo_square_white.png"
   inkscape:export-xdpi="180"
   inkscape:export-ydpi="180">
  <defs
     id="defs2436">
    <inkscape:perspective
       sodipodi:type="inkscape:persp3d"
       inkscape:vp_x="0 : 526.18109 : 1"
       inkscape:vp_y="0 : 1000 : 0"
       inkscape:vp_z="744.09448 : 526.18109 : 1"
       inkscape:persp3d-origin="372.04724 : 350.78739 : 1"
       id="perspective2442" />
  </defs>
  <sodipodi:namedview
     id="base"
     pagecolor="#ffffff"
     bordercolor="#666666"
     borderopacity="1.0"
     gridtolerance="10000"
     guidetolerance="10"
     objecttolerance="10"
     inkscape:pageopacity="0.0"
     inkscape:pageshadow="2"
     inkscape:zoom="0.768"
     inkscape:cx="853.53151"
     inkscape:cy="24.952927"
     inkscape:document-units="px"
     inkscape:current-layer="layer1"
     showgrid="false"
     inkscape:window-width="1718"
     inkscape:window-height="1008"
     inkscape:window-x="641"
     inkscape:window-y="238"
     inkscape:window-maximized="0"
     showguides="true"
     inkscape:guide-bbox="true"
     inkscape:snap-global="false">
    <inkscape:grid
       type="xygrid"
       id="grid2450"
       visible="true"
       enabled="true"
       empspacing="5"
       snapvisiblegridlinesonly="true" />
    <sodipodi:guide
       orientation="0,1"
       position="280,50"
       id="guide3966" />
    <sodipodi:guide
       orientation="1,0"
       position="65,110"
       id="guide3970" />
  </sodipodi:namedview>
  <metadata
     id="metadata2439">
    <rdf:RDF>
      <cc:Work
         rdf:about="">
        <dc:format>image/svg+xml</dc:format>
        <dc:type
           rdf:resource="http://purl.org/dc/dcmitype/StillImage" />
        <dc:title></dc:title>
      </cc:Work>
    </rdf:RDF>
  </metadata>
  <g
     inkscape:label="Layer 1"
     inkscape:groupmode="layer"
     id="layer1"
     transform="translate(0,-40)">
    <g
       id="g3962"
       transform="translate(71.168113,-244.05967)">
      <rect
         rx="4.8395252"
         style="fill:#d04003;fill-opacity:1;fill-rule:nonzero;stroke:none"
         id="rect3486-7"
         width="90"
         height="90"
         x="-6.0000029"
         y="324"
         ry="4.8395252" />
      <path
         sodipodi:nodetypes="ccccccccccccscccccccccccccccccccccccccccccccc"
         inkscape:connector-curvature="0"
         style="fill:#ffffff;fill-opacity:1;fill-rule:nonzero;stroke:none"
         d="m 30.00194,324.92007 c 0,0.15341 2.754544,5.67461 3.270812,8.59178 0.5163,2.91707 1.721424,8.75511 1.549358,10.90459 0.454188,11.92675 3.444353,23.47469 5.508759,35.1622 0.344204,1.99594 1.377191,7.82384 1.377191,7.82384 l 0.232902,2.42124 c -0.370384,-1.59968 -0.714,-3.0415 -0.921485,-3.64992 -0.602269,-1.76566 -2.065913,-6.2164 -2.410083,-8.05876 -5.017708,-10.30266 -14.171778,-30.49052 -26.409656,-33.47272 6.945934,6.15423 14.415436,14.27595 16.090837,22.11641 -3.732506,-5.24477 -18.3889022,-16.41416 -24.3539827,-20.49926 11.2354117,11.65194 20.2485897,23.72816 30.0247667,36.68903 2.839509,3.68476 6.374673,11.13107 6.632806,12.8199 0.190436,1.24598 0.421063,5.90361 0.556969,8.77246 -5.467279,-13.19248 -8.461722,-19.89103 -18.541458,-25.81146 -1.720935,-0.92121 -7.058082,-2.76456 -7.058082,-2.76456 2.425417,2.67565 5.397577,2.82155 7.614994,6.5601 -4.585201,-3.00663 -9.344164,-3.53497 -14.5819582,-3.71426 16.8274852,8.70585 25.9197062,11.13136 31.5943702,27.8443 0.455433,2.74326 -0.242288,4.8106 -0.182291,7.345 l 3.726512,0 c -0.02033,-1.78211 0.02519,-3.44327 0,-3.8035 0.185184,-1.1658 0.224699,-4.67491 0.739247,-5.74592 1.761585,-4.46671 4.60884,-6.57722 8.580624,-9.17032 -3.599731,1.17292 -5.411093,0.7283 -8.155414,5.13957 -0.02391,-1.812 0.458915,-3.37536 1.222274,-5.00561 -1.617558,1.4211 -2.258032,3.04101 -2.84241,5.23283 0.157889,-2.57165 1.414424,-19.41047 1.414424,-20.25765 4.309782,-12.30555 2.389988,-49.05093 7.871471,-53.6263 -6.327847,1.14008 -8.468964,7.60731 -10.501064,12.73862 -1.998861,-6.03478 -0.410153,-9.85554 -7.058085,-11.97068 5.305498,4.49251 4.245468,8.37525 5.336596,14.58163 -3.174696,-4.13204 -2.196491,-9.27935 -5.853055,-13.50653 -1.032542,-1.07474 -4.475874,-3.68605 -4.475874,-3.68605 z m 32.789292,21.80017 c -6.550514,4.29205 -10.254339,14.86867 -11.959345,21.33943 -0.665815,2.6 -8.42225,17.69601 -4.820167,25.79339 0.697024,-2.95865 2.369844,-5.82702 4.212584,-8.36592 0.860434,-1.15144 4.477132,-6.9097 8.090975,-15.12371 3.184965,-8.25577 8.395811,-13.08967 15.746543,-17.19258 -5.524898,0.85154 -8.687871,4.04662 -12.566851,7.82382 -1.376673,1.30502 -5.49865,6.53195 -5.49865,6.53195 0.231894,-7.37563 2.08642,-15.29295 6.794832,-20.8064 z"
         id="path3488-4" />
    </g>
    <text
       xml:space="preserve"
       style="font-size:32px;font-style:normal;font-variant:normal;font-weight:normal;font-stretch:normal;line-height:125%;letter-spacing:0px;word-spacing:0px;fill:#000000;fill-opacity:1;stroke:none;font-family:SpiegelCd;-inkscape-font-specification:SpiegelCd"
       x="179"
       y="162"
       id="text3982"
       sodipodi:linespacing="125%"><tspan
         sodipodi:role="line"
         id="tspan3984"
         x="179"
         y="nan" /></text>
    <g
       id="g4997"
       transform="matrix(1.9617014,0,0,1.9617014,144.21778,-189.06694)">
      <text
         sodipodi:linespacing="125%"
         id="text4007-9"
         y="170"
         x="17.370371"
         style="font-size:28px;font-style:normal;font-variant:normal;font-weight:normal;font-stretch:normal;line-height:125%;letter-spacing:-0.25px;word-spacing:0px;fill:#313131;fill-opacity:1;stroke:none;font-family:SpiegelCd;-inkscape-font-specification:SpiegelCd"
         xml:space="preserve"><tspan
           y="170"
           x="17.370371"
           id="tspan4009-7"
           sodipodi:role="line">development</tspan></text>
      <text
         sodipodi:linespacing="125%"
         id="text4007-8-8"
         y="170"
         x="147"
         style="font-size:25px;font-style:normal;font-variant:normal;font-weight:bold;font-stretch:normal;line-height:125%;letter-spacing:0.75px;word-spacing:0px;fill:#d04003;fill-opacity:1;stroke:none;font-family:SpiegelCd;-inkscape-font-specification:SpiegelCd Bold"
         xml:space="preserve"><tspan
           y="170"
           x="147"
           id="tspan4009-3-7"
           sodipodi:role="line">SEED</tspan></text>
    </g>
  </g>
</svg>
