<?xml version="1.0" encoding="utf-8"?>
<!-- Generator: Adobe Illustrator 19.1.0, SVG Export Plug-In . SVG Version: 6.00 Build 0)  -->
<svg version="1.1" id="Layer_1" xmlns="http://www.w3.org/2000/svg" xmlns:xlink="http://www.w3.org/1999/xlink" x="0px" y="0px"
	 viewBox="0 0 46.2 46.2" style="enable-background:new 0 0 46.2 46.2;" xml:space="preserve">
<style type="text/css">
	.st0{fill:#D1D2D1;}
</style>
<g>
	<g transform="matrix(1,0,0,1,0,0)">
	</g>
	<g transform="matrix(11.8081,0,0,11.8081,0,0)">
	</g>
	<g transform="matrix(11.8081,0,0,11.8081,0,0)">
	</g>
	<g transform="matrix(11.8081,0,0,11.8081,0,0)">
	</g>
	<g transform="matrix(11.8081,0,0,11.8081,23.6162,23.6162)">
	</g>
	<g transform="matrix(11.8081,0,0,11.8081,23.6162,23.6162)">
	</g>
	<g transform="matrix(11.8081,0,0,11.8081,23.6162,23.6162)">
	</g>
	<g transform="matrix(0.999751,0,0,0.999751,23.6162,23.6162)">
		<path vector-effect="none" class="st0" d="M-23.6-21l0.8-0.1l0.9,0l1,0.5l0.5-0.1l0.6,0.1l0.4,0.3l0.2,0.4l1.5,0.6l2.7,1.5
			l0.3,0.4l0.2,0.5l0.2,0.1l1.5,0.3l2,0.5l1,0.4l0.5,0l1-0.2l0.4,0.1l0.5,0.4l0.6-0.2l0.3,0.2l0,0.4l0.4,0.1l0.6,0.6l0.9,0.2l1-0.2
			l0.7,0.1l0.8-0.5l0,0.9l0,1.7l2.6,0l0,4.2l7.6,0l0.3,0l4.8,0L14-7.8L14-3.9L14-3.5l1.3,0l4.2,0l0,4l0,3.3l0,0.7l0,0.8l-0.6,0.5
			l-0.6,0.1l-0.3,0.4l-1,0.4L16.9,7l-0.2,0.5l0.1,0.6l-0.1,0.4l-0.2,0l-0.2,0.2l0.2,0.2l0.3-0.1L16.7,9l-0.4,0.1l0.1,0.3l-0.3,0.2
			l-0.4,0.8l0,0.4l0.4,0.3L16,11.5L15.4,12l0.2,0.3l5.7,0l-0.4,0.4l0.3,0.1l0.3,0.5l-0.4,0.4l0.5,0.5l-0.2,0.8L20.9,15l-0.1,0.8
			l0.1,0.1l-5.6,0L4.7,14.8l0.3,0.2l-0.3,0.2l0,0.5l-0.4,0.2L4,16.2l-0.1,0.4l-0.5,0.2L3,17l-0.2,0l0,0.3L3,17.5L3,17.9l-0.2,0.3
			l-0.3,0L2,18.5l0,0.3l-5.3-1.3l-0.2,0l-5.8-1.5l-14.3,0l0,0l0-7.7l0-15.3l0-13.5L-23.6-21"/>
	</g>
	<g transform="matrix(11.8081,0,0,11.8081,23.6162,23.6162)">
	</g>
	<g transform="matrix(11.8081,0,0,11.8081,23.6162,23.6162)">
	</g>
	<g transform="matrix(11.8081,0,0,11.8081,23.6162,23.6162)">
	</g>
	<g transform="matrix(1,0,0,1,0,0)">
	</g>
	<g transform="matrix(11.8081,0,0,11.8081,23.6162,23.6162)">
	</g>
	<g transform="matrix(11.8081,0,0,11.8081,23.6162,23.6162)">
	</g>
	<g transform="matrix(11.8081,0,0,11.8081,23.6162,23.6162)">
	</g>
	<g transform="matrix(11.8081,0,0,11.8081,23.6162,23.6162)">
	</g>
	<g transform="matrix(11.8081,0,0,11.8081,0,0)">
	</g>
	<g transform="matrix(11.8081,0,0,11.8081,0,0)">
	</g>
	<g transform="matrix(1,0,0,1,0,0)">
	</g>
</g>
</svg>
